<svg xmlns="http://www.w3.org/2000/svg" version="1.1" xmlns:xlink="http://www.w3.org/1999/xlink" xmlns:svgjs="http://svgjs.dev/svgjs" width="1500" height="450" viewBox="0 0 1500 450"><g transform="matrix(1,0,0,1,-0.9090909090909918,0.4105560940479336)"><svg viewBox="0 0 396 119" data-background-color="#ffffff" preserveAspectRatio="xMidYMid meet" height="450" width="1500" xmlns="http://www.w3.org/2000/svg" xmlns:xlink="http://www.w3.org/1999/xlink"><g id="tight-bounds" transform="matrix(1,0,0,1,0.2400000000000091,-0.10856927820378814)"><svg viewBox="0 0 395.52 119.21713855640756" height="119.21713855640756" width="395.52"><g><svg viewBox="0 0 580.0011166671967 174.8232036018009" height="119.21713855640756" width="395.52"><g transform="matrix(1,0,0,1,184.48111666719674,54.022907453726866)"><svg viewBox="0 0 395.52 66.77738869434718" height="66.77738869434718" width="395.52"><g id="textblocktransform"><svg viewBox="0 0 395.52 66.77738869434718" height="66.77738869434718" width="395.52" id="textblock"><g><svg viewBox="0 0 395.52 66.77738869434718" height="66.77738869434718" width="395.52"><g transform="matrix(1,0,0,1,0,0)"><svg width="395.52" viewBox="2.15 -33.3 199.88 33.75" height="66.77738869434718" data-palette-color="#336a86"><path d="M2.25 0L2.25-0.5 2.5-0.5Q2.85-0.5 3.15-0.8 3.45-1.1 3.68-1.5 3.9-1.9 4-2.38 4.1-2.85 4.1-3.25L4.1-3.25 4.1-29.85Q4.1-30.2 4-30.65 3.9-31.1 3.68-31.53 3.45-31.95 3.13-32.23 2.8-32.5 2.4-32.5L2.4-32.5 2.15-32.5 2.15-33 10.35-33Q15-33 17.63-30.95 20.25-28.9 20.25-25.5L20.25-25.5Q20.25-24.05 19.75-22.9 19.25-21.75 18.48-20.85 17.7-19.95 16.8-19.33 15.9-18.7 15.1-18.3L15.1-18.3Q17.2-17.9 18.6-16.95 20-16 20.88-14.78 21.75-13.55 22.1-12.15 22.45-10.75 22.45-9.4L22.45-9.4Q22.45-6.8 21.5-5.03 20.55-3.25 18.98-2.13 17.4-1 15.38-0.5 13.35 0 11.2 0L11.2 0 2.25 0ZM19.05-8.55L19.05-9.1Q18.65-12.95 16.45-15.05 14.25-17.15 10.25-17.15L10.25-17.15 7.45-17.15 7.45-1.65 10.35-1.65Q14.4-1.65 16.73-3.48 19.05-5.3 19.05-8.55L19.05-8.55ZM17-24.7L17-25.05Q16.85-27.95 14.98-29.65 13.1-31.35 9.95-31.35L9.95-31.35 7.45-31.35 7.45-18.75 10.05-18.75Q12.15-18.75 13.48-19.3 14.8-19.85 15.6-20.73 16.4-21.6 16.7-22.65 17-23.7 17-24.7L17-24.7ZM33.45 0L26.9 0 26.9-0.5Q27.3-0.5 27.6-0.8 27.9-1.1 28.12-1.5 28.35-1.9 28.45-2.38 28.55-2.85 28.55-3.25L28.55-3.25 28.55-28.85Q28.55-29.7 28.3-30.45 28.05-31.2 26.8-31.25L26.8-31.25 26.8-31.75 31.85-33.3 31.85-3.25Q31.85-2.85 31.95-2.38 32.05-1.9 32.27-1.5 32.5-1.1 32.77-0.8 33.05-0.5 33.45-0.5L33.45-0.5 33.45 0ZM58.05-21.55L58.05-3.25Q58.05-2.9 58.15-2.43 58.25-1.95 58.42-1.53 58.6-1.1 58.9-0.8 59.2-0.5 59.6-0.5L59.6-0.5 59.6 0 54.75 0 54.75-2.75Q54-1.65 52.55-0.6 51.1 0.45 48.8 0.45L48.8 0.45Q45.9 0.45 44.2-0.55 42.5-1.55 41.6-3.1 40.7-4.65 40.45-6.48 40.2-8.3 40.2-9.9L40.2-9.9 40.2-17.05Q40.2-17.5 40.17-17.93 40.15-18.35 39.97-18.7 39.8-19.05 39.45-19.28 39.1-19.5 38.45-19.5L38.45-19.5 38.45-19.95 43.5-21.55 43.5-8.8Q43.5-5 45.15-3.2 46.8-1.4 49.2-1.4L49.2-1.4Q50.5-1.4 51.52-1.98 52.55-2.55 53.27-3.35 54-4.15 54.37-5 54.75-5.85 54.75-6.4L54.75-6.4 54.75-17.05Q54.75-17.5 54.72-17.93 54.7-18.35 54.52-18.7 54.35-19.05 54-19.28 53.65-19.5 53-19.5L53-19.5 53-19.95 58.05-21.55ZM80.69-5.7L80.69-5.7Q80.69-4.4 80.04-3.3 79.39-2.2 78.27-1.38 77.14-0.55 75.64-0.08 74.14 0.4 72.39 0.4L72.39 0.4Q70.24 0.4 68.89-0.18 67.54-0.75 66.59-1.35L66.59-1.35Q65.94-1.75 65.39-2.02 64.84-2.3 64.19-2.3L64.19-2.3 64.19-6.1 64.69-6.1Q64.84-5.4 65.57-4.58 66.29-3.75 67.32-3.05 68.34-2.35 69.57-1.88 70.79-1.4 72.04-1.4L72.04-1.4Q72.94-1.4 73.89-1.6 74.84-1.8 75.62-2.25 76.39-2.7 76.92-3.38 77.44-4.05 77.44-5L77.44-5Q77.44-5.95 76.89-6.65 76.34-7.35 75.49-7.88 74.64-8.4 73.54-8.8 72.44-9.2 71.34-9.55L71.34-9.55Q70.04-9.95 68.72-10.45 67.39-10.95 66.34-11.63 65.29-12.3 64.64-13.28 63.99-14.25 63.99-15.6L63.99-15.6Q63.99-16.75 64.42-17.8 64.84-18.85 65.82-19.63 66.79-20.4 68.34-20.88 69.89-21.35 72.09-21.35L72.09-21.35Q74.04-21.35 75.12-21.03 76.19-20.7 76.89-20.35L76.89-20.35Q77.34-20.1 77.79-19.98 78.24-19.85 78.79-19.85L78.79-19.85 78.79-16.35 78.39-16.35Q77.49-18 75.64-18.85 73.79-19.7 71.84-19.7L71.84-19.7Q70.59-19.7 69.69-19.38 68.79-19.05 68.22-18.57 67.64-18.1 67.37-17.5 67.09-16.9 67.09-16.3L67.09-16.3Q67.09-15.45 67.57-14.85 68.04-14.25 68.87-13.8 69.69-13.35 70.72-12.95 71.74-12.55 72.89-12.2L72.89-12.2Q74.29-11.75 75.69-11.23 77.09-10.7 78.19-9.95 79.29-9.2 79.99-8.18 80.69-7.15 80.69-5.7ZM101.24-5.7L101.24-5.7Q101.24-4.4 100.59-3.3 99.94-2.2 98.82-1.38 97.69-0.55 96.19-0.08 94.69 0.4 92.94 0.4L92.94 0.4Q90.79 0.4 89.44-0.18 88.09-0.75 87.14-1.35L87.14-1.35Q86.49-1.75 85.94-2.02 85.39-2.3 84.74-2.3L84.74-2.3 84.74-6.1 85.24-6.1Q85.39-5.4 86.12-4.58 86.84-3.75 87.87-3.05 88.89-2.35 90.12-1.88 91.34-1.4 92.59-1.4L92.59-1.4Q93.49-1.4 94.44-1.6 95.39-1.8 96.17-2.25 96.94-2.7 97.47-3.38 97.99-4.05 97.99-5L97.99-5Q97.99-5.95 97.44-6.65 96.89-7.35 96.04-7.88 95.19-8.4 94.09-8.8 92.99-9.2 91.89-9.55L91.89-9.55Q90.59-9.95 89.27-10.45 87.94-10.95 86.89-11.63 85.84-12.3 85.19-13.28 84.54-14.25 84.54-15.6L84.54-15.6Q84.54-16.75 84.97-17.8 85.39-18.85 86.37-19.63 87.34-20.4 88.89-20.88 90.44-21.35 92.64-21.35L92.64-21.35Q94.59-21.35 95.67-21.03 96.74-20.7 97.44-20.35L97.44-20.35Q97.89-20.1 98.34-19.98 98.79-19.85 99.34-19.85L99.34-19.85 99.34-16.35 98.94-16.35Q98.04-18 96.19-18.85 94.34-19.7 92.39-19.7L92.39-19.7Q91.14-19.7 90.24-19.38 89.34-19.05 88.77-18.57 88.19-18.1 87.92-17.5 87.64-16.9 87.64-16.3L87.64-16.3Q87.64-15.45 88.12-14.85 88.59-14.25 89.42-13.8 90.24-13.35 91.27-12.95 92.29-12.55 93.44-12.2L93.44-12.2Q94.84-11.75 96.24-11.23 97.64-10.7 98.74-9.95 99.84-9.2 100.54-8.18 101.24-7.15 101.24-5.7ZM125.64-12.9L125.64-3.25Q125.64-2.85 125.74-2.38 125.84-1.9 126.06-1.5 126.29-1.1 126.56-0.8 126.84-0.5 127.24-0.5L127.24-0.5 127.24 0 120.79 0 120.79-0.5Q121.14-0.5 121.44-0.8 121.74-1.1 121.96-1.5 122.19-1.9 122.29-2.38 122.39-2.85 122.39-3.25L122.39-3.25 122.39-12.55Q122.39-14.35 121.89-15.7 121.39-17.05 120.54-17.95 119.69-18.85 118.61-19.28 117.54-19.7 116.44-19.7L116.44-19.7Q115.34-19.7 114.26-19.28 113.19-18.85 112.36-18.1 111.54-17.35 111.01-16.28 110.49-15.2 110.49-13.9L110.49-13.9 110.49-3.25Q110.49-2.85 110.59-2.38 110.69-1.9 110.91-1.5 111.14-1.1 111.41-0.8 111.69-0.5 112.09-0.5L112.09-0.5 112.09 0 105.59 0 105.59-0.5Q105.94-0.5 106.24-0.8 106.54-1.1 106.76-1.5 106.99-1.9 107.09-2.38 107.19-2.85 107.19-3.25L107.19-3.25 107.19-28.8Q107.19-29.65 106.94-30.4 106.69-31.15 105.49-31.2L105.49-31.2 105.49-31.7 110.49-33.25 110.49-18.8Q110.84-19.2 111.39-19.68 111.94-20.15 112.71-20.58 113.49-21 114.51-21.28 115.54-21.55 116.94-21.55L116.94-21.55Q119.29-21.55 120.94-20.75 122.59-19.95 123.64-18.68 124.69-17.4 125.16-15.88 125.64-14.35 125.64-12.9L125.64-12.9ZM132.14 0L132.14-0.5 132.39-0.5Q132.79-0.5 133.09-0.78 133.39-1.05 133.61-1.45 133.84-1.85 133.96-2.3 134.09-2.75 134.09-3.15L134.09-3.15 134.09-29.9Q134.09-30.25 133.96-30.7 133.84-31.15 133.61-31.55 133.39-31.95 133.09-32.23 132.79-32.5 132.39-32.5L132.39-32.5 132.14-32.5 132.14-33 139.34-33 139.34-32.5 139.09-32.5Q138.69-32.5 138.39-32.23 138.09-31.95 137.89-31.55 137.69-31.15 137.56-30.7 137.44-30.25 137.44-29.9L137.44-29.9 137.44-1.85 148.39-1.85Q149.34-1.85 150.04-2.3 150.74-2.75 151.21-3.43 151.69-4.1 151.91-4.88 152.14-5.65 152.14-6.3L152.14-6.3 152.64-6.3 152.64 0 132.14 0ZM162.58 0L156.08 0 156.08-0.5Q156.48-0.5 156.78-0.8 157.08-1.1 157.28-1.5 157.48-1.9 157.58-2.38 157.68-2.85 157.68-3.25L157.68-3.25 157.68-17.1Q157.68-17.95 157.43-18.73 157.18-19.5 155.98-19.55L155.98-19.55 155.98-20 160.98-21.6 160.98-3.25Q160.98-2.85 161.08-2.38 161.18-1.9 161.38-1.5 161.58-1.1 161.88-0.8 162.18-0.5 162.58-0.5L162.58-0.5 162.58 0ZM156.33-26.4L156.33-26.4Q156.33-27.4 157.01-28.1 157.68-28.8 158.68-28.8L158.68-28.8Q159.68-28.8 160.38-28.1 161.08-27.4 161.08-26.4L161.08-26.4Q161.08-25.4 160.38-24.75 159.68-24.1 158.68-24.1L158.68-24.1Q157.68-24.1 157.01-24.75 156.33-25.4 156.33-26.4ZM178.23-19.3L172.58-19.3 172.58-3.25Q172.58-2.85 172.68-2.38 172.78-1.9 173.01-1.5 173.23-1.1 173.51-0.8 173.78-0.5 174.18-0.5L174.18-0.5 174.18 0 167.68 0 167.68-0.5Q168.03-0.5 168.33-0.8 168.63-1.1 168.86-1.5 169.08-1.9 169.18-2.38 169.28-2.85 169.28-3.25L169.28-3.25 169.28-19.3 166.78-19.3 166.78-21 169.28-21 169.28-25.05Q169.28-26.6 169.38-28.05 169.48-29.5 169.98-30.65 170.48-31.8 171.51-32.5 172.53-33.2 174.33-33.2L174.33-33.2Q175.33-33.2 176.06-32.98 176.78-32.75 177.31-32.48 177.83-32.2 178.18-31.98 178.53-31.75 178.78-31.75L178.78-31.75 178.78-28.1 178.33-28.1Q178.08-29.55 177.03-30.53 175.98-31.5 174.93-31.5L174.93-31.5Q173.48-31.5 173.03-29.98 172.58-28.45 172.58-25.75L172.58-25.75 172.58-21 178.23-21 178.23-19.3ZM202.03-10.1L184.68-10.1Q184.88-8.35 185.53-6.78 186.18-5.2 187.25-4 188.33-2.8 189.88-2.08 191.43-1.35 193.48-1.35L193.48-1.35Q194.58-1.35 195.8-1.68 197.03-2 198.08-2.6 199.13-3.2 199.95-4.08 200.78-4.95 201.08-6.05L201.08-6.05 201.53-6.05 201.53-2.3Q201.23-2.3 200.85-2.1 200.48-1.9 199.98-1.6L199.98-1.6Q198.98-1 197.28-0.33 195.58 0.35 192.78 0.35L192.78 0.35Q190.53 0.35 188.5-0.3 186.48-0.95 184.93-2.3 183.38-3.65 182.45-5.75 181.53-7.85 181.53-10.75L181.53-10.75Q181.53-12.6 182.15-14.5 182.78-16.4 184.05-17.93 185.33-19.45 187.33-20.4 189.33-21.35 192.13-21.35L192.13-21.35Q194.63-21.35 196.5-20.5 198.38-19.65 199.6-18.15 200.83-16.65 201.43-14.6 202.03-12.55 202.03-10.1L202.03-10.1ZM191.93-19.7L191.93-19.7Q190.18-19.7 188.9-19 187.63-18.3 186.73-17.2 185.83-16.1 185.33-14.7 184.83-13.3 184.68-11.9L184.68-11.9 198.93-11.9Q198.88-13.35 198.4-14.75 197.93-16.15 197.08-17.25 196.23-18.35 194.93-19.03 193.63-19.7 191.93-19.7Z" opacity="1" transform="matrix(1,0,0,1,0,0)" fill="#336a86" class="wordmark-text-0" data-fill-palette-color="primary" id="text-0"></path></svg></g></svg></g></svg></g></svg></g><g><svg viewBox="0 0 168.71657785379003 174.8232036018009" height="174.8232036018009" width="168.71657785379003"><g><svg xmlns="http://www.w3.org/2000/svg" xmlns:xlink="http://www.w3.org/1999/xlink" version="1.1" x="0" y="0" viewBox="1.492489894859294 0.00044105768343084654 96.50751010514071 100.00055894231657" enable-background="new 0 0 100 100" xml:space="preserve" width="168.71657785379003" height="174.8232036018009" class="icon-icon-0" data-fill-palette-color="accent" id="icon-0"><g fill="#283132" data-fill-palette-color="accent"><path fill="#283132" d="M69.436 11.829l-4.063 4.477c-1.581-1.405-3.173-2.708-4.779-3.88l3.413-5.126c0.471-0.704 0.28-1.657-0.427-2.126-0.705-0.469-1.656-0.279-2.126 0.427l-3.39 5.092c-1.782-1.155-3.576-2.178-5.384-3.05 0.058-0.082 0.119-0.161 0.161-0.256l2.273-5.243c0.334-0.777-0.021-1.679-0.797-2.017-0.781-0.336-1.681 0.02-2.019 0.796 0 0-2.313 5.433-2.332 5.529-4.643-1.861-9.365-2.809-14.146-2.809-19.839 0-33.403 15.96-33.971 16.64-0.518 0.62-0.466 1.536 0.12 2.093 4.746 4.518 9.538 8.078 14.348 10.69l-2.238 4.25c-0.394 0.749-0.107 1.676 0.643 2.071 0.228 0.12 0.473 0.177 0.712 0.177 0.551 0 1.083-0.297 1.358-0.819l2.26-4.293c1.966 0.917 3.935 1.673 5.903 2.27l-1.196 3.977c-0.245 0.811 0.215 1.666 1.026 1.91 0.147 0.044 0.296 0.066 0.442 0.066 0.659 0 1.268-0.429 1.467-1.093l1.283-4.086C30.301 38.009 32 38.294 35 38.358v3.673c0 0.847 1.153 1.534 2 1.534 0.848 0 2-0.687 2-1.534v-3.71c2-0.159 4.801-0.625 7.22-1.303l1.164 3.989c0.224 0.627 0.685 1.019 1.313 1.019 0.172 0 0.28-0.029 0.452-0.09 0.798-0.285 1.18-1.162 0.894-1.959l-1.408-3.904c1.688-0.622 3.272-1.335 4.767-2.113l2.37 3.734c0.292 0.46 0.784 0.711 1.292 0.711 0.281 0 0.563-0.077 0.818-0.239 0.714-0.454 0.927-1.402 0.473-2.116l-2.288-3.602c7.8-4.774 12.313-10.755 12.621-11.17 0.452-0.61 0.389-1.459-0.149-1.997-0.305-0.306-0.612-0.592-0.92-0.888l4.088-4.503c0.568-0.627 0.522-1.596-0.105-2.166C70.976 11.156 70.004 11.204 69.436 11.829zM49.117 21.373c0 7.534-6.128 13.663-13.662 13.663-7.533 0-13.662-6.129-13.662-13.663 0-7.533 6.129-13.662 13.662-13.662 1.694 0 3.311 0.324 4.809 0.891-2.844 0.894-4.927 3.523-4.927 6.659 0 3.867 3.146 7.013 7.012 7.013 2.832 0 5.264-1.696 6.369-4.12C48.969 19.188 49.117 20.262 49.117 21.373zM46.293 15.261c0 2.176-1.77 3.947-3.945 3.947-2.176 0-3.945-1.771-3.945-3.947 0-2.175 1.77-3.945 3.945-3.945C44.523 11.315 46.293 13.085 46.293 15.261zM24.725 8.557c-3.662 3.07-5.998 7.674-5.998 12.816 0 4.495 1.791 8.573 4.684 11.581-6.077-2.284-12.173-6.208-18.232-11.773C7.681 18.566 14.826 11.833 24.725 8.557zM47.181 33.285c3.084-3.036 5.002-7.252 5.002-11.912 0-5.337-2.521-10.087-6.425-13.152 6.694 2.038 13.262 6.128 19.625 12.259C63.166 23.065 56.655 29.863 47.181 33.285z" data-fill-palette-color="accent"></path><path fill="#283132" d="M93.154 45H89V28h2.621c0.848 0 1.533-0.422 1.533-1.632 0-0.847-0.686-1.368-1.533-1.368H89v-2h2.621c0.848 0 1.533-0.654 1.533-1.5 0-0.847-0.686-1.5-1.533-1.5H89v-2h2.621c0.848 0 1.533-0.653 1.533-1.5S92.469 15 91.621 15H89v-2h2.621c0.848 0 1.533-0.654 1.533-1.5 0-0.847-0.686-1.5-1.533-1.5H89V8h2.621c0.848 0 1.533-0.653 1.533-1.5S92.469 5 91.621 5H89V3.703c0-0.846-0.653-1.533-1.5-1.533S86 2.857 86 3.703V5h-3.577c-0.848 0-1.534 0.653-1.534 1.5S81.575 8 82.423 8H86v2h-3.577c-0.848 0-1.534 0.653-1.534 1.5 0 0.846 0.687 1.5 1.534 1.5H86v2h-3.577c-0.848 0-1.534 0.653-1.534 1.5s0.687 1.5 1.534 1.5H86v2h-3.577c-0.848 0-1.534 0.653-1.534 1.5 0 0.846 0.687 1.5 1.534 1.5H86v2h-3.577c-0.848 0-1.534 0.521-1.534 1.368 0 1.099 0.687 1.632 1.534 1.632H86v17h-5.111C78.353 45 77 47.161 77 49.697v45.995c0 2.535 1.353 4.309 3.889 4.309h12.266C95.69 100 98 98.227 98 95.691V49.697C98 47.161 95.69 45 93.154 45zM95 95.467C95 96.313 94.313 97 93.467 97H81.533C80.687 97 80 96.313 80 95.467V49.533C80 48.687 80.687 48 81.533 48h11.934C94.313 48 95 48.687 95 49.533V95.467z" data-fill-palette-color="accent"></path></g></svg></g></svg></g></svg></g><defs></defs></svg><rect width="395.52" height="119.21713855640756" fill="none" stroke="none" visibility="hidden"></rect></g></svg></g></svg>