<svg xmlns="http://www.w3.org/2000/svg" version="1.1" xmlns:xlink="http://www.w3.org/1999/xlink" xmlns:svgjs="http://svgjs.dev/svgjs" width="1500" height="1500" viewBox="0 0 1500 1500"><rect width="1500" height="1500" fill="#ffffff"></rect><g transform="matrix(0.6666666666666666,0,0,0.6666666666666666,249.39393939393943,665.1803259311757)"><svg viewBox="0 0 396 67" data-background-color="#ffffff" preserveAspectRatio="xMidYMid meet" height="253" width="1500" xmlns="http://www.w3.org/2000/svg" xmlns:xlink="http://www.w3.org/1999/xlink"><g id="tight-bounds" transform="matrix(1,0,0,1,0.2400000000000091,0.19630726899137585)"><svg viewBox="0 0 395.52 66.60738546201725" height="66.60738546201725" width="395.52"><g><svg viewBox="0 0 527.7260649624428 88.87149430447761" height="66.60738546201725" width="395.52"><g><rect width="5.799220746570125" height="77.16772298507462" x="410.7012061428537" y="5.8518856597014945" fill="#61777f" opacity="1" stroke-width="0" stroke="transparent" fill-opacity="1" class="rect-qz-0" data-fill-palette-color="primary" rx="1%" id="qz-0" data-palette-color="#61777f"></rect></g><g transform="matrix(1,0,0,1,0,12.282529241791046)"><svg viewBox="0 0 395.52 64.30643582089552" height="64.30643582089552" width="395.52"><g id="textblocktransform"><svg viewBox="0 0 395.52 64.30643582089552" height="64.30643582089552" width="395.52" id="textblock"><g><svg viewBox="0 0 395.52 64.30643582089552" height="64.30643582089552" width="395.52"><g transform="matrix(1,0,0,1,0,0)"><svg width="395.52" viewBox="4 -40.45 251.23 40.85" height="64.30643582089552" data-palette-color="#61777f"><path d="M24.75-8.4L24.75-14.75Q24.75-15.9 23.9-16.98 23.05-18.05 20.9-18.2L20.9-18.2Q19.5-16.5 17.5-16.5L17.5-16.5Q15.8-16.5 14.6-17.7 13.4-18.9 13.4-20.65L13.4-20.65Q13.4-22.4 14.6-23.6 15.8-24.8 17.5-24.8L17.5-24.8Q18.4-24.8 19.28-24.3 20.15-23.8 20.85-23.1L20.85-23.1Q21.95-23.15 22.55-23.45 23.15-23.75 23.43-24.18 23.7-24.6 23.75-25.15 23.8-25.7 23.8-26.25L23.8-26.25 23.8-31.3Q23.8-32.55 23.03-33.6 22.25-34.65 20.4-34.65L20.4-34.65 9.95-34.65 9.9-1.65Q9.9-0.65 8.97-0.13 8.05 0.4 6.95 0.4L6.95 0.4Q4 0.4 4-2L4-2 4-36.7Q4-38.5 4.93-39.1 5.85-39.7 7.15-39.7L7.15-39.7 21.65-39.7Q22.95-39.7 24.43-39.2 25.9-38.7 27.2-37.85L27.2-37.85 27.15-37.85Q28.45-36.9 29.08-35.35 29.7-33.8 29.7-31.75L29.7-31.75 29.7-26.1Q29.7-24.1 28.85-22.83 28-21.55 27.05-20.8L27.05-20.8Q27.7-20.4 28.3-19.98 28.9-19.55 29.3-19.05L29.3-19.05Q29.95-18.35 30.33-17.4 30.7-16.45 30.7-15.15L30.7-15.15 30.7-8Q30.7-3.9 27.5-1.95L27.5-1.95Q25.9-0.95 24.48-0.45 23.05 0.05 21.65 0.05L21.65 0.05 14.25 0.05Q13.4 0.05 12.93-0.65 12.45-1.35 12.45-2.5L12.45-2.5Q12.45-5 14.55-5L14.55-5 21.4-5Q23.25-5 24-6.05 24.75-7.1 24.75-8.4L24.75-8.4ZM43.45-37.8L43.45-1.95Q43.45 0.4 40.7 0.4L40.7 0.4Q37.9 0.4 37.9-1.95L37.9-1.95 37.9-37.8Q37.9-40.15 40.7-40.15L40.7-40.15Q43.45-40.15 43.45-37.8L43.45-37.8ZM74.4-28L74.4-7.95Q74.4-5.95 73.7-4.4 73-2.85 71.7-1.9L71.7-1.9 71.75-1.9Q70.5-1.05 69.1-0.53 67.7 0 66.4 0L66.4 0 58.35 0Q57.1 0 55.67-0.53 54.25-1.05 53-1.9L53-1.9 53.05-1.9Q51.75-2.85 51.05-4.4 50.35-5.95 50.35-7.95L50.35-7.95 50.35-28Q50.35-30.4 53.1-30.4L53.1-30.4Q55.85-30.4 55.85-28L55.85-28 55.85-8.35Q55.85-6.95 56.55-5.9L56.55-5.9Q57.2-4.7 59.25-4.7L59.25-4.7 65.5-4.7Q67.5-4.7 68.15-5.9L68.15-5.9 68.1-5.85Q68.9-7.05 68.9-8.35L68.9-8.35 68.9-28Q68.9-30.4 71.65-30.4L71.65-30.4Q74.4-30.4 74.4-28L74.4-28ZM89.54-17.5L96.89-17.5Q98.14-17.5 99.57-16.93 100.99-16.35 102.24-15.5L102.24-15.5 102.19-15.5Q103.49-14.55 104.19-13.05 104.89-11.55 104.89-9.45L104.89-9.45 104.89-7.95Q104.89-3.85 102.19-1.9L102.19-1.9Q100.89-0.9 99.54-0.45 98.19 0 96.89 0L96.89 0 88.39 0Q87.09 0 85.74-0.45 84.39-0.9 83.09-1.9L83.09-1.9Q80.39-3.8 80.39-7.95L80.39-7.95 80.39-8.55Q80.39-10.7 83.14-10.65L83.14-10.65Q85.94-10.65 85.94-8.55L85.94-8.55 85.94-8Q85.94-6.8 86.69-5.75 87.44-4.7 89.34-4.7L89.34-4.7 95.94-4.7Q97.84-4.7 98.59-5.75 99.34-6.8 99.34-8L99.34-8 99.34-9.4Q99.34-10.05 99.17-10.65 98.99-11.25 98.59-11.73 98.19-12.2 97.54-12.5 96.89-12.8 95.94-12.8L95.94-12.8 88.64-12.8Q86.09-12.8 83.29-14.6L83.29-14.6Q80.64-16.3 80.64-20.45L80.64-20.45 80.64-22.15Q80.64-24.15 81.34-25.68 82.04-27.2 83.34-28.15L83.34-28.15 83.29-28.15Q84.54-29 85.94-29.55 87.34-30.1 88.64-30.1L88.64-30.1 96.64-30.1Q97.94-30.1 99.32-29.55 100.69-29 101.99-28.15L101.99-28.15 101.94-28.15Q103.24-27.2 103.94-25.68 104.64-24.15 104.64-22.15L104.64-22.15 104.64-21.7Q104.64-20.65 103.94-20.18 103.24-19.7 101.89-19.65L101.89-19.65Q99.14-19.6 99.14-21.7L99.14-21.7 99.14-22.1Q99.14-23.35 98.37-24.38 97.59-25.4 95.74-25.4L95.74-25.4 89.54-25.4Q87.69-25.4 86.92-24.38 86.14-23.35 86.14-22.1L86.14-22.1 86.14-20.9Q86.14-19.6 86.92-18.55 87.69-17.5 89.54-17.5L89.54-17.5ZM120.29-17.5L127.64-17.5Q128.89-17.5 130.32-16.93 131.74-16.35 132.99-15.5L132.99-15.5 132.94-15.5Q134.24-14.55 134.94-13.05 135.64-11.55 135.64-9.45L135.64-9.45 135.64-7.95Q135.64-3.85 132.94-1.9L132.94-1.9Q131.64-0.9 130.29-0.45 128.94 0 127.64 0L127.64 0 119.14 0Q117.84 0 116.49-0.45 115.14-0.9 113.84-1.9L113.84-1.9Q111.14-3.8 111.14-7.95L111.14-7.95 111.14-8.55Q111.14-10.7 113.89-10.65L113.89-10.65Q116.69-10.65 116.69-8.55L116.69-8.55 116.69-8Q116.69-6.8 117.44-5.75 118.19-4.7 120.09-4.7L120.09-4.7 126.69-4.7Q128.59-4.7 129.34-5.75 130.09-6.8 130.09-8L130.09-8 130.09-9.4Q130.09-10.05 129.92-10.65 129.74-11.25 129.34-11.73 128.94-12.2 128.29-12.5 127.64-12.8 126.69-12.8L126.69-12.8 119.39-12.8Q116.84-12.8 114.04-14.6L114.04-14.6Q111.39-16.3 111.39-20.45L111.39-20.45 111.39-22.15Q111.39-24.15 112.09-25.68 112.79-27.2 114.09-28.15L114.09-28.15 114.04-28.15Q115.29-29 116.69-29.55 118.09-30.1 119.39-30.1L119.39-30.1 127.39-30.1Q128.69-30.1 130.07-29.55 131.44-29 132.74-28.15L132.74-28.15 132.69-28.15Q133.99-27.2 134.69-25.68 135.39-24.15 135.39-22.15L135.39-22.15 135.39-21.7Q135.39-20.65 134.69-20.18 133.99-19.7 132.64-19.65L132.64-19.65Q129.89-19.6 129.89-21.7L129.89-21.7 129.89-22.1Q129.89-23.35 129.12-24.38 128.34-25.4 126.49-25.4L126.49-25.4 120.29-25.4Q118.44-25.4 117.67-24.38 116.89-23.35 116.89-22.1L116.89-22.1 116.89-20.9Q116.89-19.6 117.67-18.55 118.44-17.5 120.29-17.5L120.29-17.5ZM147.64-25.4L147.64-2.1Q147.64 0.3 144.89 0.3L144.89 0.3Q142.14 0.3 142.14-2.1L142.14-2.1 142.14-37.6Q142.14-40 144.89-40L144.89-40Q147.64-40 147.64-37.6L147.64-37.6 147.64-30.1 158.19-30.1Q160.74-30.1 163.49-28.2L163.49-28.2Q166.19-26.3 166.19-22.2L166.19-22.2 166.19-2.1Q166.19 0.3 163.44 0.3L163.44 0.3Q160.69 0.3 160.69-2.1L160.69-2.1 160.69-21.75Q160.69-23.05 159.89-24.25L159.89-24.25 159.94-24.2Q159.29-25.4 157.29-25.4L157.29-25.4 147.64-25.4ZM195.84 0.05L176.39 0.05Q174.54 0.05 173.89-0.9 173.24-1.85 173.24-3L173.24-3 173.24-37.55Q173.24-39.95 176.14-39.95L176.14-39.95Q179.14-39.95 179.14-37.55L179.14-37.55 179.14-5 195.84-5Q197.64-5 197.64-2.55L197.64-2.55Q197.74 0.05 195.84 0.05L195.84 0.05ZM207.43-27.9L207.43-2.1Q207.43 0.3 204.68 0.3L204.68 0.3Q201.88 0.3 201.88-2.1L201.88-2.1 201.88-27.9Q201.88-30.3 204.68-30.3L204.68-30.3Q207.43-30.3 207.43-27.9L207.43-27.9ZM208.48-36.6L208.48-36.6Q208.48-35 207.38-33.9 206.28-32.8 204.68-32.8L204.68-32.8Q203.08-32.8 201.96-33.9 200.83-35 200.83-36.6L200.83-36.6Q200.83-38.25 201.96-39.35 203.08-40.45 204.68-40.45L204.68-40.45Q206.28-40.45 207.38-39.35 208.48-38.25 208.48-36.6ZM221.33-25.4L221.33-2.1Q221.33 0.3 218.53 0.3L218.53 0.3Q215.78 0.3 215.78-2.1L215.78-2.1 215.78-25.4 213.38-25.4Q211.58-25.4 211.48-27.75L211.48-27.75Q211.48-30.1 213.38-30.1L213.38-30.1 215.78-30.1 215.78-32.5Q215.78-34.55 216.36-35.98 216.93-37.4 218.23-38.15L218.23-38.15 218.23-38.1Q219.53-38.9 220.91-39.35 222.28-39.8 223.83-39.8L223.83-39.8 225.03-39.8Q226.88-39.8 226.88-37.45L226.88-37.45Q226.98-35.1 225.03-35.1L225.03-35.1 224.23-35.1Q223.28-35.1 222.71-34.93 222.13-34.75 221.83-34.4 221.53-34.05 221.43-33.55 221.33-33.05 221.33-32.45L221.33-32.45 221.33-30.1 225.08-30.1Q227.03-30.1 226.93-27.75L226.93-27.75Q226.93-25.4 225.08-25.4L225.08-25.4 221.33-25.4ZM236.68-22.15L236.68-8Q236.68-6.8 237.45-5.75 238.23-4.7 240.08-4.7L240.08-4.7 246.33-4.7Q248.18-4.7 248.95-5.63 249.73-6.55 249.73-7.75L249.73-7.75 249.73-8.3Q249.73-10.65 252.48-10.65L252.48-10.65Q255.23-10.65 255.23-8.3L255.23-8.3 255.23-7.7Q255.23-5.6 254.55-4.25 253.88-2.9 252.53-1.9L252.53-1.9Q249.88 0 247.23 0L247.23 0 238.83 0Q236.18 0 233.68-1.9L233.68-1.9Q232.48-2.9 231.83-4.42 231.18-5.95 231.18-7.95L231.18-7.95 231.18-22.2Q231.18-26.25 233.68-28.2L233.68-28.2Q234.93-29.1 236.25-29.63 237.58-30.15 238.83-30.15L238.83-30.15 247.23-30.15Q248.43-30.15 249.88-29.68 251.33-29.2 252.58-28.4L252.58-28.4Q253.78-27.55 254.5-26.05 255.23-24.55 255.23-22.5L255.23-22.5 255.23-15.75Q255.23-14.6 254.55-13.7 253.88-12.8 252.08-12.8L252.08-12.8 241.28-12.8Q239.48-12.8 239.38-15.15L239.38-15.15Q239.38-17.5 241.28-17.5L241.28-17.5 249.78-17.5 249.73-22.15Q249.73-23.4 248.95-24.43 248.18-25.45 246.33-25.45L246.33-25.45 240.08-25.45Q238.23-25.45 237.45-24.43 236.68-23.4 236.68-22.15L236.68-22.15Z" opacity="1" transform="matrix(1,0,0,1,0,0)" fill="#61777f" class="wordmark-text-0" data-fill-palette-color="primary" id="text-0"></path></svg></g></svg></g></svg></g></svg></g><g transform="matrix(1,0,0,1,431.6816330322776,0)"><svg viewBox="0 0 96.04443193016532 88.87149430447761" height="88.87149430447761" width="96.04443193016532"><g><svg xmlns="http://www.w3.org/2000/svg" data-name="Layer 1" viewBox="3.79 7.212249648155204 92.41982707364419 85.51758774905628" x="0" y="0" height="88.87149430447761" width="96.04443193016532" class="icon-icon-0" data-fill-palette-color="accent" id="icon-0"><path d="M96.2 47.79C95.48 52.54 92.84 63 83.11 73.32a22.08 22.08 0 0 1-9.57-7c6.94-12.35 16.18-18 20.5-20.06A1.51 1.51 0 0 1 96.2 47.79Zm-27.63 30c-1.74 0.3-7.31 1.71-8.5 7.59a6.25 6.25 0 0 1-2.8 4 0.91 0.91 0 0 0 0.14 1.6c4.47 1.88 16.08 5.36 16.07-9.47A64.09 64.09 0 0 0 80 76.38a26.32 26.32 0 0 1-8.43-6.21A64 64 0 0 0 68.57 77.83ZM3.79 89.76c0-15.28 19.28-21.39 27.57-23.3a0.22 0.22 0 0 0 0.17-0.23V63a25.26 25.26 0 0 1-4.21-8.4c-2.16-2.14-3.12-5.53-3.64-7.36-0.84-3-1.69-7.28 0.63-10.35l0.1-0.13c-0.15-0.91-0.26-1.79-0.33-2.69-1-7-0.24-12.16 2.41-15.42a8.79 8.79 0 0 1 5.74-3.24c1.35-4.66 7.94-9.21 13.93-8 5.83 1.21 18-0.16 18.07-0.17a0.61 0.61 0 0 1 0.43 0.13 0.57 0.57 0 0 1 0.21 0.4 6 6 0 0 1-1.71 4.35c9.69 6.46 8.29 19.22 7.17 24.61l0.1 0.13c2.32 3.07 1.48 7.38 0.64 10.35-0.52 1.83-1.48 5.22-3.64 7.36a25.15 25.15 0 0 1-4.21 8.34v3.29a0.23 0.23 0 0 0 0.17 0.23c1.28 0.29 2.81 0.69 4.5 1.2l-0.25 0.5 0 0.07 0 0.07c-0.88 1.88-1.68 3.85-2.41 5.88a13.84 13.84 0 0 0-9.41 10.37 1.77 1.77 0 0 1-0.9 1.19 5.32 5.32 0 0 0-1.73 7H6.79A3 3 0 0 1 3.79 89.76ZM60.4 71.68a6.2 6.2 0 0 1-2.85-3.42 20.61 20.61 0 0 1-4.34 2.19 17.53 17.53 0 0 1-11.69 0 20.18 20.18 0 0 1-4.35-2.17 6.21 6.21 0 0 1-2.83 3.37 16.35 16.35 0 0 0 26.06 0ZM31.65 51.08a0.57 0.57 0 0 1 0.52 0.48c0.78 5 4.6 11.52 11.14 13.82a12 12 0 0 0 8.07 0c6.29-2.27 10.38-8.66 11.18-13.81a0.57 0.57 0 0 1 0.52-0.48c0.31 0 1.42-0.48 2.79-5.31 1.07-3.77 0.62-5.14 0.25-5.62a1.38 1.38 0 0 0-1.29-0.45 0.58 0.58 0 0 1-0.51-0.22 0.57 0.57 0 0 1-0.09-0.54l0-0.11c0.27-0.9 1.39-5.49-2.51-8.37-3.42 0.76-9 1-16.57-2.25C41.5 26.64 38.41 26.59 36 28c-4.81 2.93-5.47 11-5.48 11.13a0.57 0.57 0 0 1-0.6 0.53h-0.26a1.23 1.23 0 0 0-1.06 0.46c-0.36 0.48-0.81 1.85 0.25 5.62C30.23 50.6 31.34 51.05 31.65 51.08Z" fill="#61777f" data-fill-palette-color="accent"></path></svg></g></svg></g></svg></g><defs></defs></svg><rect width="395.52" height="66.60738546201725" fill="none" stroke="none" visibility="hidden"></rect></g></svg></g></svg>