<svg xmlns="http://www.w3.org/2000/svg" version="1.1" xmlns:xlink="http://www.w3.org/1999/xlink" xmlns:svgjs="http://svgjs.dev/svgjs" width="128" height="128" viewBox="0 0 128 128"><g transform="matrix(0.8046875,0,0,0.8046875,12.581627881494455,11.159526151315788)"><svg viewBox="0 0 92 95" data-background-color="#ffffff" preserveAspectRatio="xMidYMid meet" height="132" width="128" xmlns="http://www.w3.org/2000/svg" xmlns:xlink="http://www.w3.org/1999/xlink"><g id="tight-bounds" transform="matrix(1,0,0,1,-0.07291034075232972,-0.24049999999999727)"><svg viewBox="0 0 92.14582068150466 95.481" height="95.481" width="92.14582068150466"><g><svg viewBox="0 0 92.14582068150466 95.481" height="95.481" width="92.14582068150466"><g><svg viewBox="0 0 92.14582068150466 95.481" height="95.481" width="92.14582068150466"><g id="textblocktransform"><svg viewBox="0 0 92.14582068150466 95.481" height="95.481" width="92.14582068150466" id="textblock"><g><svg viewBox="0 0 92.14582068150466 95.481" height="95.481" width="92.14582068150466"><g><svg viewBox="0 0 92.14582068150466 95.481" height="95.481" width="92.14582068150466"><g><svg xmlns="http://www.w3.org/2000/svg" xmlns:xlink="http://www.w3.org/1999/xlink" version="1.1" x="0" y="0" viewBox="1.492489894859294 0.00044105768343084654 96.50751010514071 100.00055894231657" enable-background="new 0 0 100 100" xml:space="preserve" width="92.14582068150466" height="95.481" class="icon-icon-0" data-fill-palette-color="accent" id="icon-0"><g fill="#283132" data-fill-palette-color="accent"><path fill="#283132" d="M69.436 11.829l-4.063 4.477c-1.581-1.405-3.173-2.708-4.779-3.88l3.413-5.126c0.471-0.704 0.28-1.657-0.427-2.126-0.705-0.469-1.656-0.279-2.126 0.427l-3.39 5.092c-1.782-1.155-3.576-2.178-5.384-3.05 0.058-0.082 0.119-0.161 0.161-0.256l2.273-5.243c0.334-0.777-0.021-1.679-0.797-2.017-0.781-0.336-1.681 0.02-2.019 0.796 0 0-2.313 5.433-2.332 5.529-4.643-1.861-9.365-2.809-14.146-2.809-19.839 0-33.403 15.96-33.971 16.64-0.518 0.62-0.466 1.536 0.12 2.093 4.746 4.518 9.538 8.078 14.348 10.69l-2.238 4.25c-0.394 0.749-0.107 1.676 0.643 2.071 0.228 0.12 0.473 0.177 0.712 0.177 0.551 0 1.083-0.297 1.358-0.819l2.26-4.293c1.966 0.917 3.935 1.673 5.903 2.27l-1.196 3.977c-0.245 0.811 0.215 1.666 1.026 1.91 0.147 0.044 0.296 0.066 0.442 0.066 0.659 0 1.268-0.429 1.467-1.093l1.283-4.086C30.301 38.009 32 38.294 35 38.358v3.673c0 0.847 1.153 1.534 2 1.534 0.848 0 2-0.687 2-1.534v-3.71c2-0.159 4.801-0.625 7.22-1.303l1.164 3.989c0.224 0.627 0.685 1.019 1.313 1.019 0.172 0 0.28-0.029 0.452-0.09 0.798-0.285 1.18-1.162 0.894-1.959l-1.408-3.904c1.688-0.622 3.272-1.335 4.767-2.113l2.37 3.734c0.292 0.46 0.784 0.711 1.292 0.711 0.281 0 0.563-0.077 0.818-0.239 0.714-0.454 0.927-1.402 0.473-2.116l-2.288-3.602c7.8-4.774 12.313-10.755 12.621-11.17 0.452-0.61 0.389-1.459-0.149-1.997-0.305-0.306-0.612-0.592-0.92-0.888l4.088-4.503c0.568-0.627 0.522-1.596-0.105-2.166C70.976 11.156 70.004 11.204 69.436 11.829zM49.117 21.373c0 7.534-6.128 13.663-13.662 13.663-7.533 0-13.662-6.129-13.662-13.663 0-7.533 6.129-13.662 13.662-13.662 1.694 0 3.311 0.324 4.809 0.891-2.844 0.894-4.927 3.523-4.927 6.659 0 3.867 3.146 7.013 7.012 7.013 2.832 0 5.264-1.696 6.369-4.12C48.969 19.188 49.117 20.262 49.117 21.373zM46.293 15.261c0 2.176-1.77 3.947-3.945 3.947-2.176 0-3.945-1.771-3.945-3.947 0-2.175 1.77-3.945 3.945-3.945C44.523 11.315 46.293 13.085 46.293 15.261zM24.725 8.557c-3.662 3.07-5.998 7.674-5.998 12.816 0 4.495 1.791 8.573 4.684 11.581-6.077-2.284-12.173-6.208-18.232-11.773C7.681 18.566 14.826 11.833 24.725 8.557zM47.181 33.285c3.084-3.036 5.002-7.252 5.002-11.912 0-5.337-2.521-10.087-6.425-13.152 6.694 2.038 13.262 6.128 19.625 12.259C63.166 23.065 56.655 29.863 47.181 33.285z" data-fill-palette-color="accent"></path><path fill="#283132" d="M93.154 45H89V28h2.621c0.848 0 1.533-0.422 1.533-1.632 0-0.847-0.686-1.368-1.533-1.368H89v-2h2.621c0.848 0 1.533-0.654 1.533-1.5 0-0.847-0.686-1.5-1.533-1.5H89v-2h2.621c0.848 0 1.533-0.653 1.533-1.5S92.469 15 91.621 15H89v-2h2.621c0.848 0 1.533-0.654 1.533-1.5 0-0.847-0.686-1.5-1.533-1.5H89V8h2.621c0.848 0 1.533-0.653 1.533-1.5S92.469 5 91.621 5H89V3.703c0-0.846-0.653-1.533-1.5-1.533S86 2.857 86 3.703V5h-3.577c-0.848 0-1.534 0.653-1.534 1.5S81.575 8 82.423 8H86v2h-3.577c-0.848 0-1.534 0.653-1.534 1.5 0 0.846 0.687 1.5 1.534 1.5H86v2h-3.577c-0.848 0-1.534 0.653-1.534 1.5s0.687 1.5 1.534 1.5H86v2h-3.577c-0.848 0-1.534 0.653-1.534 1.5 0 0.846 0.687 1.5 1.534 1.5H86v2h-3.577c-0.848 0-1.534 0.521-1.534 1.368 0 1.099 0.687 1.632 1.534 1.632H86v17h-5.111C78.353 45 77 47.161 77 49.697v45.995c0 2.535 1.353 4.309 3.889 4.309h12.266C95.69 100 98 98.227 98 95.691V49.697C98 47.161 95.69 45 93.154 45zM95 95.467C95 96.313 94.313 97 93.467 97H81.533C80.687 97 80 96.313 80 95.467V49.533C80 48.687 80.687 48 81.533 48h11.934C94.313 48 95 48.687 95 49.533V95.467z" data-fill-palette-color="accent"></path></g></svg></g></svg></g></svg></g></svg></g></svg></g></svg></g><defs></defs></svg><rect width="92.14582068150466" height="95.481" fill="none" stroke="none" visibility="hidden"></rect></g></svg></g></svg>